<?xml version="1.0" encoding="UTF-8" standalone="no"?>
<!-- Created with Inkscape (http://www.inkscape.org/) -->

<svg
   xmlns:dc="http://purl.org/dc/elements/1.1/"
   xmlns:cc="http://creativecommons.org/ns#"
   xmlns:rdf="http://www.w3.org/1999/02/22-rdf-syntax-ns#"
   xmlns:svg="http://www.w3.org/2000/svg"
   xmlns="http://www.w3.org/2000/svg"
   xmlns:sodipodi="http://sodipodi.sourceforge.net/DTD/sodipodi-0.dtd"
   xmlns:inkscape="http://www.inkscape.org/namespaces/inkscape"
   width="88.582672"
   height="88.582672"
   id="svg1901"
   sodipodi:version="0.32"
   inkscape:version="0.48.2 r9819"
   sodipodi:docname="Uusi asiakirja 1"
   version="1.1">
  <defs
     id="defs1903" />
  <sodipodi:namedview
     id="base"
     pagecolor="#ffffff"
     bordercolor="#666666"
     borderopacity="1.0"
     inkscape:pageopacity="0.0"
     inkscape:pageshadow="2"
     inkscape:zoom="3.0886424"
     inkscape:cx="25.333543"
     inkscape:cy="16.929893"
     inkscape:document-units="px"
     inkscape:current-layer="layer1"
     inkscape:window-width="1280"
     inkscape:window-height="775"
     inkscape:window-x="0"
     inkscape:window-y="24"
     showgrid="false"
     units="cm"
     inkscape:window-maximized="1" />
  <metadata
     id="metadata1906">
    <rdf:RDF>
      <cc:Work
         rdf:about="">
        <dc:format>image/svg+xml</dc:format>
        <dc:type
           rdf:resource="http://purl.org/dc/dcmitype/StillImage" />
        <dc:title></dc:title>
      </cc:Work>
    </rdf:RDF>
  </metadata>
  <g
     inkscape:label="Taso 1"
     inkscape:groupmode="layer"
     id="layer1"
     transform="translate(0,-963.7782)">
    <g
       id="g3770">
      <path
         inkscape:connector-curvature="0"
         id="path2982"
         d="m 44.265148,963.79445 c -24.424705,0 -44.26803312,19.84333 -44.26803312,44.26805 0,24.4247 19.84332812,44.268 44.26803312,44.268 24.424706,0 44.268033,-19.8433 44.268033,-44.268 0,-24.42472 -19.843327,-44.26805 -44.268033,-44.26805 z m 0,4.72823 c 21.869383,0 39.539806,17.67042 39.539806,39.53982 0,21.8694 -17.670423,39.5398 -39.539806,39.5398 -21.869381,0 -39.5398053,-17.6704 -39.5398053,-39.5398 0,-21.8694 17.6704243,-39.53982 39.5398053,-39.53982 z"
         style="font-size:medium;font-style:normal;font-variant:normal;font-weight:normal;font-stretch:normal;text-indent:0;text-align:start;text-decoration:none;line-height:normal;letter-spacing:normal;word-spacing:normal;text-transform:none;direction:ltr;block-progression:tb;writing-mode:lr-tb;text-anchor:start;baseline-shift:baseline;color:#000000;fill:#000000;fill-opacity:1;fill-rule:nonzero;stroke:none;stroke-width:5;marker:none;visibility:visible;display:inline;overflow:visible;enable-background:accumulate;font-family:Sans;-inkscape-font-specification:Sans" />
      <g
         id="text3757"
         style="font-size:26.85606003px;font-style:normal;font-variant:normal;font-weight:bold;font-stretch:normal;text-align:start;line-height:125%;letter-spacing:0px;word-spacing:0px;writing-mode:lr-tb;text-anchor:start;fill:#000000;fill-opacity:1;stroke:none;font-family:FreeSans;-inkscape-font-specification:FreeSans Bold">
        <path
           id="path3762"
           style=""
           d="m 11.768679,997.583 0,16.2211 9.372765,0 0,3.357 -13.4011738,0 0,-19.5781 4.0284088,0" />
        <path
           id="path3764"
           style=""
           d="m 24.61301,1014.9052 c -1.71879,-1.9158 -2.578183,-4.3776 -2.578182,-7.3855 -1e-6,-3.0078 0.859392,-5.4696 2.578182,-7.3854 1.736686,-1.91568 4.010497,-2.87355 6.821439,-2.87357 2.828825,2e-5 5.111588,0.95789 6.848295,2.87357 1.736673,1.8979 2.605018,4.4044 2.605038,7.5197 -2e-5,2.9005 -0.859413,5.3175 -2.578182,7.2512 -1.700899,1.9157 -3.983662,2.8736 -6.848295,2.8736 -2.84675,0 -5.129513,-0.9579 -6.848295,-2.8736 m 6.848295,-14.2069 c -1.629276,0 -2.93627,0.6267 -3.920985,1.8799 -0.984727,1.2354 -1.477088,2.8826 -1.477083,4.9415 -5e-6,2.059 0.492356,3.7151 1.477083,4.9684 0.984715,1.2354 2.291709,1.8531 3.920985,1.8531 1.611352,0 2.909393,-0.6177 3.894129,-1.8531 1.002611,-1.2354 1.503923,-2.8557 1.503939,-4.8609 -1.6e-5,-2.1127 -0.492376,-3.7957 -1.477083,-5.049 -0.966832,-1.2532 -2.273825,-1.8799 -3.920985,-1.8799" />
        <path
           id="path3766"
           style=""
           d="m 57.144929,1003.7868 c -0.716176,-2.0948 -2.273826,-3.1422 -4.672954,-3.1422 -1.700893,0 -3.043695,0.5998 -4.028409,1.7994 -0.966824,1.1995 -1.450233,2.8557 -1.450227,4.9683 -6e-6,2.0053 0.519211,3.6525 1.557651,4.9415 1.056331,1.2891 2.399132,1.9337 4.028409,1.9337 0.250646,0 0.53711,-0.027 0.859394,-0.081 0.340165,-0.072 0.743005,-0.1969 1.208523,-0.376 0.465491,-0.1969 0.895188,-0.4476 1.289091,-0.7519 0.393874,-0.3044 0.743002,-0.7252 1.047386,-1.2623 0.304353,-0.555 0.492345,-1.1816 0.563977,-1.8799 l -4.458106,0 0,-3.357 7.84197,0 0,10.5813 -2.417046,0 -0.483409,-2.5782 c -0.751985,1.0921 -1.593474,1.8889 -2.524469,2.3902 -0.931023,0.5013 -2.058977,0.7519 -3.383864,0.7519 -2.649805,0 -4.843048,-0.9668 -6.579735,-2.9004 -1.718789,-1.9336 -2.578183,-4.3865 -2.578181,-7.3586 -2e-6,-3.0436 0.877296,-5.5144 2.631894,-7.4122 1.75459,-1.89785 4.037353,-2.84676 6.848295,-2.84678 2.36332,2e-5 4.305907,0.59085 5.827765,1.7725 1.521825,1.18168 2.408074,2.78408 2.65875,4.80728 l -3.786705,0" />
        <path
           id="path3768"
           style=""
           d="m 65.841259,1014.9052 c -1.718789,-1.9158 -2.578183,-4.3776 -2.578181,-7.3855 -2e-6,-3.0078 0.859392,-5.4696 2.578181,-7.3854 1.736687,-1.91568 4.010498,-2.87355 6.82144,-2.87357 2.828825,2e-5 5.111587,0.95789 6.848295,2.87357 1.736673,1.8979 2.605018,4.4044 2.605038,7.5197 -2e-5,2.9005 -0.859413,5.3175 -2.578182,7.2512 -1.7009,1.9157 -3.983662,2.8736 -6.848295,2.8736 -2.84675,0 -5.129513,-0.9579 -6.848296,-2.8736 m 6.848296,-14.2069 c -1.629277,0 -2.936271,0.6267 -3.920985,1.8799 -0.984728,1.2354 -1.477089,2.8826 -1.477083,4.9415 -6e-6,2.059 0.492355,3.7151 1.477083,4.9684 0.984714,1.2354 2.291708,1.8531 3.920985,1.8531 1.611351,0 2.909393,-0.6177 3.894128,-1.8531 1.002611,-1.2354 1.503924,-2.8557 1.50394,-4.8609 -1.6e-5,-2.1127 -0.492377,-3.7957 -1.477084,-5.049 -0.966831,-1.2532 -2.273825,-1.8799 -3.920984,-1.8799" />
      </g>
    </g>
  </g>
</svg>
